<svg width="12" height="12" viewBox="0 0 12 12" fill="none" xmlns="http://www.w3.org/2000/svg">
<g id="clarity:lock-line" clip-path="url(#clip0_0_15)">
<path id="Vector" d="M6.03 6.86333C5.85054 6.86469 5.6767 6.92611 5.5362 7.03778C5.39571 7.14946 5.29666 7.30496 5.25485 7.47949C5.21304 7.65402 5.23088 7.83753 5.30552 8.00074C5.38016 8.16395 5.5073 8.29747 5.66667 8.38V9.33333H6.33333V8.41C6.50544 8.33947 6.64775 8.21139 6.73596 8.04764C6.82417 7.88388 6.85282 7.69459 6.81702 7.51206C6.78122 7.32953 6.6832 7.16509 6.53967 7.04678C6.39614 6.92847 6.216 6.86363 6.03 6.86333Z" fill="#2362EB"/>
<path id="Vector_2" d="M8.66667 5V3.57333C8.68098 2.85063 8.40844 2.15168 7.90868 1.62943C7.40892 1.10718 6.72263 0.804155 6 0.786667C5.27737 0.804155 4.59108 1.10718 4.09132 1.62943C3.59156 2.15168 3.31902 2.85063 3.33333 3.57333V5H2.33333V10.6667C2.33333 10.8435 2.40357 11.013 2.5286 11.1381C2.65362 11.2631 2.82319 11.3333 3 11.3333H9C9.17681 11.3333 9.34638 11.2631 9.4714 11.1381C9.59643 11.013 9.66667 10.8435 9.66667 10.6667V5H8.66667ZM4 3.57333C3.98563 3.02741 4.18792 2.498 4.56267 2.10076C4.93742 1.70352 5.45417 1.47076 6 1.45333C6.54583 1.47076 7.06258 1.70352 7.43733 2.10076C7.81208 2.498 8.01437 3.02741 8 3.57333V5H4V3.57333ZM3 10.6667V5.66667H9V10.6667H3Z" fill="#2362EB"/>
<g id="Vector_3">
</g>
</g>
<defs>
<clipPath id="clip0_0_15">
<rect width="12" height="12" fill="white"/>
</clipPath>
</defs>
</svg>
