<svg xmlns="http://www.w3.org/2000/svg" width="512" height="512" viewBox="0 0 24 24" fill="#000000"><g fill="none" stroke="#000000" stroke-linecap="round" stroke-linejoin="round" stroke-width="1.5"><path d="M5.833 19.708h12.334a3.083 3.083 0 0 0 3.083-3.083V9.431a3.083 3.083 0 0 0-3.083-3.084h-1.419c-.408 0-.8-.163-1.09-.452l-1.15-1.151a1.542 1.542 0 0 0-1.09-.452h-2.836c-.41 0-.8.163-1.09.452l-1.15 1.151c-.29.29-.682.452-1.09.452H5.833A3.083 3.083 0 0 0 2.75 9.431v7.194a3.083 3.083 0 0 0 3.083 3.083"/><path d="M12 16.625a4.111 4.111 0 1 0 0-8.222a4.111 4.111 0 0 0 0 8.222"/></g></svg>